PathFileType	4	(X/Y/Z)	9_coords_data.trc
DataRate	CameraRate	NumFrames	NumMarkers	Units	OrigDataRate	OrigDataStartFrame	OrigNumFrames
30.0	30.0	6	21	m	30.0	1	49
Frame#	Time	THUMB_TIP	THUMB_IP	THUMB_MCP	THUMB_CMC	INDEX_TIP	INDEX_DIP	INDEX_PIP	INDEX_MCP	MIDDLE_TIP	MIDDLE_DIP	MIDDLE_PIP	MIDDLE_MCP	RING_TIP	RING_DIP	RING_PIP	RING_MCP	PINKY_TIP	PINKY_DIP	PINKY_PIP	PINKY_MCP	WRIST
X1	Y1	Z1	X2	Y2	Z2	X3	Y3	Z3	X4	Y4	Z4	X5	Y5	Z5	X6	Y6	Z6	X7	Y7	Z7	X8	Y8	Z8	X9	Y9	Z9	X10	Y10	Z10	X11	Y11	Z11	X12	Y12	Z12	X13	Y13	Z13	X14	Y14	Z14	X15	Y15	Z15	X16	Y16	Z16	X17	Y17	Z17	X18	Y18	Z18	X19	Y19	Z19	X20	Y20	Z20	X21	Y21	Z21
0	-2.749317978547796e-18	0.5441669324332238	0.01033669546885907	-0.11871264962421005	0.525339631051172	-0.0021450266299298804	-0.12292445875070088	0.49839156910023064	-0.012946900563204577	-0.11170209373178111	0.48273079977948097	-0.025577947704732318	-0.07188894323611233	0.5068585143172536	-0.008917343760007523	-0.11221586499369227	0.5221302953377127	-0.004502172975248353	-0.1208922105034421	0.531393892068847	0.01743110172097484	-0.12896234493249165	0.49401166450212564	0.02804664253867295	-0.11154065014416398	0.5062035760657898	-0.01634501038551628	-0.09837069828911796	0.5228484623150846	-0.01130265445988976	-0.10342266903995714	0.5392906437879157	0.011439304751905133	-0.111288259267242	0.5050411322372406	0.03325388338183499	-0.09265380089736253	0.5370873427203232	0.004835241078029906	-0.09094795505614639	0.5265894644872838	-0.009353472238785576	-0.08727712858006381	0.5446430513667204	0.007073589336192065	-0.09221672651901908	0.5169540019929021	0.030856791014670204	-0.07482716940289047	0.5337517038037148	-0.0060574074733315	-0.07925737268750874	0.5239204303295492	-0.01960082319516232	-0.07566266095193988	0.5417200891581798	-0.008490501127817907	-0.07492448201412497	0.5243387670979073	0.01685415182720562	-0.0560453490619339	0.4622830810018608	-0.023011742144276925	-0.051989820119430985
1	0.03333333333333339	0.5441509790501798	0.009990023930219416	-0.11843370089705857	0.5254642908814809	-0.0027243092064632712	-0.12257536942257616	0.49812159676529977	-0.013132657003574355	-0.11195165187158052	0.4830021663839459	-0.02494024703185771	-0.07167915948946718	0.5066216611444104	-0.008645195463003907	-0.11156893498907172	0.521991399330792	-0.004444184876447821	-0.12017838666346592	0.5313870682297518	0.017331969427957117	-0.1285168722964729	0.4940158276920904	0.028319434681287947	-0.11130344492180091	0.5059415001500612	-0.015901114319182952	-0.0979619374473937	0.5227078296691553	-0.010801957141929663	-0.10253236308827463	0.5391823436360788	0.011779582150233225	-0.11078306140721367	0.5047219752930698	0.03358419204134977	-0.09252957072295354	0.5365905838584213	0.005231341814568302	-0.09061174896712068	0.5261769038611384	-0.009009880339444054	-0.0869046125420265	0.5442781923864497	0.007449107819120893	-0.09155488581568003	0.5164893443327206	0.03142284166062226	-0.07459137074528199	0.5337637634621202	-0.0056146642276904135	-0.0789039432676994	0.5241147613223771	-0.01929801200539072	-0.0753454672874885	0.5415439506431442	-0.007624266486136122	-0.07447423587589813	0.5238108002362305	0.01768119760655762	-0.055871754463485246	0.462283081001861	-0.023011742144276925	-0.05198982011943101
2	0.06666666666666676	0.5440834472054994	0.009809665125615097	-0.11814292891945244	0.525545305756213	-0.0031254984346540393	-0.12226832044939645	0.4979320899054961	-0.013267752586021975	-0.11209654621326753	0.4832179311288888	-0.024436148989101625	-0.07149296935998439	0.5064567014055636	-0.008471061275249214	-0.11108603447586496	0.5218935994298848	-0.004403030530651719	-0.11963900502694949	0.5313532833898332	0.01725660525072792	-0.12820547397254614	0.4939614915225905	0.02848208296047894	-0.11119140199830416	0.5057243303394651	-0.015563289858842366	-0.097717837907519	0.5225886801737297	-0.010402374591071295	-0.1018359270598356	0.5390631543550642	0.012058114438511569	-0.11041075551296115	0.5044061418041158	0.03383819411402622	-0.09250356334412452	0.5360427144846543	0.005650700144982812	-0.09040571219284274	0.5258424678161004	-0.008719850726176537	-0.08660541805158553	0.5439547927119601	0.00778148367976883	-0.09105846517574398	0.5160581144668899	0.03189623601693625	-0.07447609813698555	0.5334344974670181	-0.004986738885122133	-0.07852332829198164	0.5242658154796284	-0.019020548072493204	-0.07506103565464248	0.5413852430953143	-0.006903205925719247	-0.07410854606976514	0.5233439468817971	0.018386639715425868	-0.05578318688138392	0.4622830810018609	-0.023011742144276925	-0.05198982011943101
3	0.10000000000000014	0.5439762566791428	0.00974352730811201	-0.11788359436494969	0.5255877997902654	-0.0033967288062956014	-0.12203068038933651	0.4978034332247937	-0.01338473556566	-0.11217732078307077	0.48338433047296603	-0.02406292288079037	-0.07133670629828096	0.5063560849710532	-0.008378183741158951	-0.11074782122449042	0.5218356658517619	-0.0043764972061915985	-0.1192548230837509	0.531302689912069	0.017203511475977873	-0.1280120209072021	0.49386398884817395	0.028551297502677153	-0.11118325063303908	0.5055569203335505	-0.015319063523258403	-0.09757951779581028	0.5224912826753787	-0.010095991064056009	-0.10131407080274382	0.5389399302736595	0.01227948766920961	-0.11015655312643266	0.5041024265609539	0.03402323331779944	-0.09255809349961716	0.5346453119231985	0.006505606217120263	-0.09064793643847888	0.5255804607127906	-0.008479712178166787	-0.08637374585720672	0.5436752618581924	0.008072448298154788	-0.09070781254733423	0.5156654906380522	0.03228422301985634	-0.07446085852447251	0.5306271655589463	-0.0030959534517213116	-0.07765827551116411	0.5243697367169402	-0.018772443991098675	-0.07481359123060802	0.5412426651984312	-0.006317021049600968	-0.07382427691912416	0.5229401507615146	0.018977565850640254	-0.05576644510485032	0.462283081001861	-0.023011742144276925	-0.05198982011943101
4	0.13333333333333353	0.5438426487439089	0.009751277298873706	-0.1176810554873545	0.5255980547735462	-0.003574144831070214	-0.12187246526395795	0.497721626437177	-0.013501690447108028	-0.11222007792979202	0.4835077768361219	-0.02381187112303418	-0.07121329002890484	0.5063113968151731	-0.008352488757072618	-0.11053487265933565	0.521813897116381	-0.004363817441678797	-0.11900617631041582	0.5312432097852219	0.01716847799440191	-0.12792010635538317	0.49373787926008517	0.028542356490683263	-0.1112581387599256	0.5054401490139652	-0.015155154392233694	-0.09749394717567697	0.5224164110878139	-0.009875122151489224	-0.10094760980203527	0.5388196398257281	0.012447356018888467	-0.11000578871971345	0.5038195744678362	0.034145795829815584	-0.09267601504217063	0.5127886938118928	-0.02091502521989863	-0.08359214324284014	0.5253861578834723	-0.008286437672753166	-0.0862041684206194	0.5434418339572809	0.00832238901826865	-0.0904842871649178	0.5153166657115412	0.032592429674899615	-0.07452618979479489	0.5110718125119886	-0.028403161572474356	-0.070404681151635	0.5244282728468326	-0.018557227736494375	-0.07460736532026374	0.5411164093263053	-0.00585529306356436	-0.07361793345949269	0.5226005800938859	0.019460153615101228	-0.05580850679001431	0.4622830810018608	-0.023011742144276925	-0.05198982011943101
5	0.1666666666666669	0.5436963792183156	0.009801771232902823	-0.11754887578095619	0.5255825000075223	-0.003684575909836618	-0.12179220238661762	0.49767624040258573	-0.013626107414786426	-0.11224093931841647	0.4835944622074807	-0.02366965080878025	-0.0711225643632116	0.5063137535840235	-0.008381677601189685	-0.11042761727764752	0.521823145390403	-0.004365175573154967	-0.11887311769236547	0.5311814760962226	0.017145491890356745	-0.12791317657905046	0.49359732890192043	0.02846967363664754	-0.11139558349004341	0.5053717465794645	-0.015058079666325996	-0.09742343107143583	0.522365411879229	-0.009732164533197474	-0.10071735998297782	0.5387094951362748	0.012564783595099605	-0.10994376755314184	0.5035664365273423	0.03421179771376748	-0.0928405476119922	0.5137512316163259	-0.021646802921509112	-0.08290539300340946	0.5252555312509302	-0.008137547065093842	-0.08609147149006982	0.5432567587540538	0.00853070429475411	-0.0903699272845952	0.5150170179733005	0.03282526464823887	-0.07465330513265839	0.512675195660343	-0.030160116443510576	-0.0704981889425221	0.5244476544430107	-0.018377699014353932	-0.07444582795027022	0.5410081682592897	-0.005507636470007959	-0.07348515566199487	0.5223258125913813	0.019839784504331326	-0.055896486364762354	0.4622830810018608	-0.023011742144276925	-0.051989820119430985
